<svg width="92" height="9" viewBox="0 0 92 9" fill="none" xmlns="http://www.w3.org/2000/svg">
<path d="M3.82117 8.71892C3.35818 8.71892 3.08038 8.44457 3.08038 7.96865V1.76492H1.17053C0.765407 1.76492 0.48761 1.52976 0.48761 1.15462C0.48761 0.779489 0.759619 0.54433 1.17053 0.54433H6.4776C6.88851 0.54433 7.16052 0.779489 7.16052 1.15462C7.16052 1.52976 6.88272 1.76492 6.4776 1.76492H4.56775V7.96865C4.56775 8.44457 4.28995 8.71892 3.82117 8.71892Z" fill="#0297D4"/>
<path d="M9.38868 8.68533C8.75785 8.68533 8.38745 8.43337 8.38745 7.99105C8.38745 7.6607 8.63053 7.44794 9.08195 7.44794H9.1051C9.73014 7.44794 10.0658 7.20158 10.3436 6.77046L7.84922 1.41778C7.79714 1.3114 7.77399 1.18262 7.77399 1.07064C7.77399 0.701103 8.08072 0.432349 8.5032 0.432349C8.85045 0.432349 9.04143 0.572325 9.20348 0.94746L11.1018 5.30351H11.177L13 0.941861C13.1505 0.577924 13.3357 0.432349 13.7003 0.432349C14.1344 0.432349 14.4064 0.684306 14.4064 1.05384C14.4064 1.16582 14.3832 1.2946 14.3369 1.40658L12.0856 6.32813C11.2985 8.04704 10.5925 8.68533 9.38868 8.68533Z" fill="#0297D4"/>
<path d="M18.255 8.71892C17.792 8.71892 17.5142 8.44457 17.5142 7.96865V1.76492H15.6044C15.1993 1.76492 14.9215 1.52976 14.9215 1.15462C14.9215 0.779489 15.1935 0.54433 15.6044 0.54433H20.9115C21.3224 0.54433 21.5944 0.779489 21.5944 1.15462C21.5944 1.52976 21.3166 1.76492 20.9115 1.76492H19.0016V7.96865C19.0016 8.44457 18.7238 8.71892 18.255 8.71892Z" fill="#0297D4"/>
<path d="M28.2789 8.78611C26.5658 8.78611 25.4141 8.03024 24.9221 6.92723C24.8469 6.76486 24.8122 6.61368 24.8122 6.47371C24.8122 6.08737 25.09 5.80742 25.4951 5.80742C25.8018 5.80742 25.9928 5.9194 26.1491 6.21055C26.5947 7.1064 27.2661 7.53193 28.2731 7.53193C29.5752 7.53193 30.4954 6.57449 30.5823 5.09635H27.7001C27.3181 5.09635 27.0461 4.86678 27.0461 4.51405C27.0461 4.16131 27.3181 3.93175 27.7001 3.93175H30.5707C30.4434 2.53759 29.5289 1.63614 28.2789 1.63614C27.3239 1.63614 26.641 2.07847 26.2243 2.92392C26.0507 3.26546 25.8539 3.37184 25.5472 3.37184C25.1363 3.37184 24.8585 3.11429 24.8585 2.71676C24.8585 2.58798 24.8816 2.4704 24.9337 2.33602C25.2983 1.26101 26.5889 0.381958 28.2789 0.381958C30.6401 0.381958 32.1333 1.99448 32.1333 4.58123C32.1333 7.18478 30.6575 8.78611 28.2789 8.78611Z" fill="#0297D4"/>
<path d="M34.182 8.62374C33.719 8.62374 33.4355 8.34379 33.4355 7.87347V1.2946C33.4355 0.824282 33.719 0.54433 34.182 0.54433H36.9021C38.4184 0.54433 39.3965 1.33379 39.3965 2.55998C39.3965 3.42783 38.731 4.1837 37.8744 4.31808V4.36287C39.0088 4.46925 39.8016 5.25872 39.8016 6.32813C39.8016 7.75029 38.7194 8.62374 36.9369 8.62374H34.182ZM34.9286 3.94854H36.2945C37.3362 3.94854 37.9207 3.52302 37.9207 2.77275C37.9207 2.06727 37.4172 1.66974 36.5259 1.66974H34.9286V3.94854ZM34.9286 7.49833H36.5954C37.695 7.49833 38.2795 7.05601 38.2795 6.22735C38.2795 5.40429 37.6776 4.97317 36.5317 4.97317H34.9286V7.49833Z" fill="#0297D4"/>
<path d="M41.2543 8.71892C40.7971 8.71892 40.5019 8.46136 40.5019 8.05264C40.5019 7.94065 40.5309 7.78388 40.6003 7.61031L43.0252 1.23301C43.2278 0.695504 43.5635 0.449146 44.1075 0.449146C44.6573 0.449146 44.993 0.684306 45.2013 1.22741L47.632 7.61031C47.7015 7.79508 47.7304 7.92386 47.7304 8.05264C47.7304 8.44457 47.4179 8.71892 46.9838 8.71892C46.5787 8.71892 46.353 8.53975 46.2199 8.10863L45.6701 6.56329H42.5507L42.0009 8.09743C41.862 8.53415 41.642 8.71892 41.2543 8.71892ZM42.9037 5.42109H45.3055L44.1191 1.97208H44.0785L42.9037 5.42109Z" fill="#0297D4"/>
<path d="M49.6808 8.71892C49.2178 8.71892 48.9342 8.43897 48.9342 7.96865V1.19942C48.9342 0.729098 49.2178 0.449146 49.6808 0.449146C50.1438 0.449146 50.4274 0.729098 50.4274 1.19942V4.07732H50.4737L53.8304 0.757093C54.0734 0.521934 54.2066 0.449146 54.4323 0.449146C54.8027 0.449146 55.0978 0.706702 55.0978 1.03705C55.0978 1.21621 55.0342 1.36179 54.8779 1.51296L51.8858 4.38527L55.1152 7.53193C55.2772 7.6999 55.3409 7.83987 55.3409 8.03584C55.3409 8.42777 55.0399 8.71892 54.6348 8.71892C54.3686 8.71892 54.2123 8.62934 53.9345 8.35498L50.4737 4.93957H50.4274V7.96865C50.4274 8.43897 50.1438 8.71892 49.6808 8.71892Z" fill="#0297D4"/>
<path d="M57.679 8.68533C57.0482 8.68533 56.6778 8.43337 56.6778 7.99105C56.6778 7.6607 56.9209 7.44794 57.3723 7.44794H57.3954C58.0205 7.44794 58.3561 7.20158 58.6339 6.77046L56.1396 1.41778C56.0875 1.3114 56.0643 1.18262 56.0643 1.07064C56.0643 0.701103 56.3711 0.432349 56.7935 0.432349C57.1408 0.432349 57.3318 0.572325 57.4938 0.94746L59.3921 5.30351H59.4673L61.2904 0.941861C61.4408 0.577924 61.626 0.432349 61.9907 0.432349C62.4247 0.432349 62.6967 0.684306 62.6967 1.05384C62.6967 1.16582 62.6736 1.2946 62.6273 1.40658L60.376 6.32813C59.5889 8.04704 58.8828 8.68533 57.679 8.68533Z" fill="#0297D4"/>
<path d="M63.2002 8.71892C62.743 8.71892 62.4479 8.46136 62.4479 8.05264C62.4479 7.94065 62.4768 7.78388 62.5462 7.61031L64.9712 1.23301C65.1737 0.695504 65.5094 0.449146 66.0534 0.449146C66.6032 0.449146 66.9389 0.684306 67.1473 1.22741L69.578 7.61031C69.6474 7.79508 69.6764 7.92386 69.6764 8.05264C69.6764 8.44457 69.3638 8.71892 68.9298 8.71892C68.5247 8.71892 68.299 8.53975 68.1658 8.10863L67.616 6.56329H64.4966L63.9468 8.09743C63.8079 8.53415 63.588 8.71892 63.2002 8.71892ZM64.8496 5.42109H67.2514L66.065 1.97208H66.0245L64.8496 5.42109Z" fill="#0297D4"/>
<path d="M72.6916 8.71892C72.2286 8.71892 71.9508 8.44457 71.9508 7.96865V1.76492H70.041C69.6358 1.76492 69.3581 1.52976 69.3581 1.15462C69.3581 0.779489 69.6301 0.54433 70.041 0.54433H75.348C75.759 0.54433 76.031 0.779489 76.031 1.15462C76.031 1.52976 75.7532 1.76492 75.348 1.76492H73.4382V7.96865C73.4382 8.44457 73.1604 8.71892 72.6916 8.71892Z" fill="#0297D4"/>
<path d="M80.1863 8.75811C77.7498 8.75811 76.2219 7.15679 76.2219 4.58683C76.2219 2.01688 77.7498 0.409953 80.1863 0.409953C82.6171 0.409953 84.1449 2.01688 84.1449 4.58683C84.1449 7.15679 82.6171 8.75811 80.1863 8.75811ZM80.1863 7.52633C81.6737 7.52633 82.6228 6.38412 82.6228 4.58683C82.6228 2.78394 81.6737 1.64174 80.1863 1.64174C78.6932 1.64174 77.7498 2.78394 77.7498 4.58683C77.7498 6.38412 78.6932 7.52633 80.1863 7.52633Z" fill="#0297D4"/>
<path d="M86.1995 8.71892C85.7365 8.71892 85.4529 8.44457 85.4529 7.96865V1.2946C85.4529 0.824282 85.7365 0.54433 86.1995 0.54433H88.6997C90.3606 0.54433 91.5123 1.63614 91.5123 3.24866C91.5123 4.86119 90.3259 5.953 88.636 5.953H86.9461V7.96865C86.9461 8.44457 86.6683 8.71892 86.1995 8.71892ZM86.9461 4.7884H88.3003C89.371 4.7884 89.996 4.22849 89.996 3.24866C89.996 2.28003 89.3768 1.72573 88.3061 1.72573H86.9461V4.7884Z" fill="#0297D4"/>
</svg>
